<svg width="22" height="19" viewBox="0 0 22 19" fill="none" xmlns="http://www.w3.org/2000/svg">
<g clip-path="url(#clip0_46_379)">
<path d="M17.4167 8.67547H4.58333C3.57081 8.67547 2.74999 9.38168 2.74999 10.2528V15.7736C2.74999 16.6447 3.57081 17.3509 4.58333 17.3509H17.4167C18.4292 17.3509 19.25 16.6447 19.25 15.7736V10.2528C19.25 9.38168 18.4292 8.67547 17.4167 8.67547Z" stroke="#F7EBEB" stroke-width="2" stroke-linecap="round" stroke-linejoin="round"/>
<path d="M6.41667 8.67547V5.52076C6.41667 4.4749 6.89955 3.47188 7.7591 2.73235C8.61864 1.99282 9.78443 1.57736 11 1.57736C12.2156 1.57736 13.3814 1.99282 14.2409 2.73235C15.1005 3.47188 15.5833 4.4749 15.5833 5.52076V8.67547" stroke="#F7EBEB" stroke-width="2" stroke-linecap="round" stroke-linejoin="round"/>
</g>
<defs>
<clipPath id="clip0_46_379">
<rect width="21.2" height="18.24" fill="white" transform="scale(1.03774)"/>
</clipPath>
</defs>
</svg>
