<svg width="23" height="17" viewBox="0 0 23 17" fill="none" xmlns="http://www.w3.org/2000/svg">
<path fill-rule="evenodd" clip-rule="evenodd" d="M3.6061 4.1196C3.59096 4.13325 3.56124 4.16156 3.52846 4.19339C3.50469 4.21646 3.4857 4.23511 3.44639 4.27386L1.27108 6.41775C1.21411 6.47655 1.17454 6.51603 1.08261 6.60664C1.03132 6.65719 0.993654 6.69602 0.912616 6.78088C0.761936 6.9246 0.603051 7.09616 0.45416 7.27727C0.313772 7.42364 0.201602 7.59412 0.123263 7.78036C-0.0380241 8.26465 -0.0380241 8.73535 0.105646 9.17253L0.12489 9.22347C0.203863 9.40777 0.315364 9.57672 0.454135 9.72251C0.603157 9.9023 0.762027 10.0739 0.930039 10.2367C0.993654 10.304 1.03132 10.3428 1.08261 10.3934L1.27108 10.5791L3.25437 12.5369C3.34711 12.6283 3.39266 12.6727 3.44542 12.7223C3.50165 12.7807 3.56071 12.8387 3.61999 12.8937C3.6306 12.903 6.15834 15.3926 6.15834 15.3926C6.23641 15.4696 6.29939 15.53 6.44105 15.6648C6.45608 15.6793 6.47891 15.7022 6.48592 15.7094C6.52238 15.7472 6.54353 15.7691 6.55763 15.783C6.85241 16.0739 7.19131 16.3184 7.56206 16.5076C7.94194 16.694 8.33723 16.8222 8.74498 16.8929C9.13017 16.955 9.51172 16.9882 9.89419 16.9936C9.96001 16.9949 10.0147 16.9956 10.1366 16.9968C10.2542 16.998 10.3061 16.9986 10.3698 16.9999L17.9019 17C17.9796 16.9986 18.0321 16.998 18.151 16.9968C18.274 16.9956 18.3293 16.9949 18.4 16.9936C18.784 16.9869 19.1683 16.9526 19.5485 16.8909C19.9652 16.8214 20.3661 16.691 20.7404 16.5035C21.1174 16.3148 21.4616 16.0679 21.76 15.7724C22.0567 15.4788 22.3058 15.1413 22.4982 14.7724C22.688 14.3978 22.8185 14.0045 22.8887 13.5988C22.9525 13.2196 22.9863 12.839 22.9904 12.4576C22.9938 12.3791 22.9953 12.3041 22.9975 12.138C22.9985 12.0591 22.999 12.0244 22.9999 11.9816L23 4.98981C22.999 4.93534 22.9985 4.90074 22.9975 4.82327L22.9963 4.74278C22.9948 4.64128 22.993 4.56512 22.9899 4.48928C22.9857 4.13025 22.9532 3.75455 22.893 3.38269C22.8196 2.9709 22.6895 2.58132 22.5051 2.21602C22.3112 1.84294 22.0638 1.50805 21.7683 1.21693C21.4738 0.924423 21.1317 0.678569 20.7568 0.490418C20.3844 0.306533 19.9909 0.178107 19.5849 0.107241C19.1955 0.0461235 18.8133 0.0140679 18.4303 0.00949072C18.3037 0.00425352 18.1915 0.00314815 17.9434 0.00314815C17.8621 0.00172515 17.7671 0.000841628 17.6602 0.000399076C17.5798 6.60177e-05 17.5159 0 17.3717 0H10.9543C10.6665 0 10.5362 0.000537435 10.3719 0.00323558C10.1345 0.00314815 10.0223 0.00425352 9.87787 0.00994754C9.51373 0.0137774 9.13217 0.0458787 8.75457 0.105528C8.33723 0.177816 7.94194 0.306015 7.57128 0.487769C7.19131 0.681617 6.85241 0.926129 6.55735 1.21728C6.54353 1.2309 6.52238 1.25276 6.48735 1.2891C6.47891 1.29781 6.44105 1.33519 6.44105 1.33519C6.29939 1.46999 6.23641 1.53044 6.15834 1.60738L5.83253 1.92849L3.66554 4.06727C3.64655 4.0822 3.62623 4.09976 3.6061 4.1196ZM17.3717 1.25926C17.5141 1.25926 17.5768 1.25932 17.6549 1.25965C17.7568 1.26007 17.8466 1.2609 17.9328 1.26232C18.1745 1.26241 18.2753 1.2634 18.397 1.2682C18.7358 1.27249 19.0561 1.29936 19.3732 1.34904C19.6467 1.39687 19.9224 1.48689 20.1808 1.61444C20.4309 1.73995 20.6625 1.90644 20.8631 2.10572C21.0662 2.3058 21.2348 2.53389 21.3645 2.78352C21.4909 3.03402 21.5824 3.30816 21.6329 3.59095C21.6816 3.89234 21.7089 4.20687 21.7127 4.5221C21.7158 4.60292 21.7174 4.66963 21.7188 4.76148L21.7199 4.83991C21.7209 4.92022 21.7215 4.95673 21.7224 5.0024L21.7223 11.9693C21.7215 12.0033 21.7209 12.0399 21.7199 12.1216C21.7178 12.2767 21.7164 12.3444 21.7132 12.4263C21.7093 12.7612 21.6812 13.0774 21.6287 13.39C21.5801 13.6708 21.4888 13.9458 21.3584 14.2033C21.2295 14.4503 21.0584 14.6821 20.8544 14.884C20.6515 15.085 20.4178 15.2526 20.1616 15.3809C19.9024 15.5107 19.6248 15.601 19.3382 15.6488C19.0219 15.7001 18.6995 15.7289 18.3761 15.7345C18.3098 15.7358 18.2573 15.7365 18.1383 15.7376C18.0153 15.7388 17.96 15.7395 17.8894 15.7409L10.3825 15.7407C10.3259 15.7395 10.2713 15.7388 10.1494 15.7376C10.0317 15.7365 9.97988 15.7358 9.91617 15.7346C9.59299 15.73 9.27415 15.7022 8.95869 15.6514C8.67944 15.6029 8.40127 15.5127 8.14044 15.3848C7.89567 15.2598 7.66351 15.0923 7.46139 14.8928L7.4115 14.8413C7.36192 14.7902 7.34046 14.7684 7.31578 14.7468C7.1885 14.6256 7.13057 14.5699 7.06183 14.5022L4.52875 12.0057L4.52871 12.0057C4.5056 11.985 4.49162 11.9724 4.48196 11.964C4.43619 11.9206 4.39875 11.8833 4.36335 11.8463C4.29021 11.7764 4.25014 11.7374 4.15821 11.6468L2.17492 9.68903L1.98609 9.50293C1.94689 9.46429 1.91534 9.43176 1.84305 9.35607C1.68572 9.20301 1.55371 9.05981 1.43023 8.90959L1.39159 8.86673C1.35939 8.83412 1.33265 8.79675 1.31234 8.756C1.26318 8.58813 1.26337 8.40991 1.31289 8.24212C1.33205 8.20301 1.35762 8.16723 1.38864 8.13624L1.43219 8.08802C1.55364 7.93879 1.68429 7.79705 1.8234 7.66363C1.91534 7.56824 1.94689 7.53571 1.98609 7.49707C2.08582 7.39878 2.13037 7.35432 2.18599 7.29662L4.15821 5.35318L4.34987 5.16429C4.38802 5.12669 4.40439 5.11062 4.42512 5.09049L4.46734 5.05309L4.46736 5.05308C4.49804 5.02597 4.51506 5.01093 4.53195 4.99429L6.73633 2.8186L7.06183 2.49781C7.13057 2.43006 7.1885 2.37439 7.31578 2.25325C7.34046 2.23164 7.36192 2.20984 7.40985 2.16039L7.46111 2.10744C7.66351 1.90772 7.89567 1.74022 8.14965 1.61058C8.40127 1.48729 8.67944 1.39708 8.96637 1.34733C9.27231 1.29907 9.59114 1.27225 9.91068 1.26866C10.0507 1.2634 10.1515 1.26241 10.3825 1.26241C10.548 1.25978 10.6736 1.25926 10.9543 1.25926H17.3717ZM11.3202 11.8325C11.2685 11.8825 11.2068 11.9232 11.1372 11.9515C10.9221 12.0391 10.6746 11.9902 10.5103 11.8276C10.287 11.6065 10.287 11.2491 10.5103 11.028C10.5429 10.9957 10.5787 10.968 10.6169 10.9449L13.0977 8.49728L10.5103 5.95L10.5181 5.94229C10.4674 5.89133 10.426 5.83048 10.3973 5.76193C10.3085 5.54987 10.3581 5.30594 10.5231 5.14407C10.7474 4.92395 11.1101 4.92395 11.3344 5.14407C11.3671 5.17612 11.3952 5.21138 11.4187 5.24897L13.9077 7.69811L16.4201 5.21933C16.4388 5.19292 16.4599 5.16773 16.4836 5.14407C16.6472 4.98211 16.8938 4.93336 17.1081 5.02058C17.3225 5.1078 17.4623 5.31378 17.4623 5.54232C17.4623 5.69465 17.4001 5.83697 17.2952 5.94077L17.3014 5.94685L14.7181 8.49553L17.2393 10.9763C17.2621 10.9927 17.2839 11.011 17.3046 11.0311C17.4689 11.1923 17.5184 11.4353 17.4299 11.6466C17.3414 11.8578 17.1324 11.9956 16.9005 11.9956C16.7459 11.9956 16.6015 11.9344 16.4962 11.831L16.49 11.837L13.9079 9.29491L11.3281 11.8402L11.3202 11.8325Z" fill="white"/>
</svg>
