<svg width="284" height="191" viewBox="0 0 284 191" fill="none" xmlns="http://www.w3.org/2000/svg">
<path d="M164.938 53.0924L159.258 50.4793L159.683 50.2836L165.363 52.897L164.938 53.0924Z" fill="#FBF4F4"/>
<path d="M159.984 53.0924L159.559 52.897L165.238 50.2836L165.663 50.4793L159.984 53.0924Z" fill="#FBF4F4"/>
<path d="M117.713 32.8372L117.439 33.3005L119.043 34.0127L119.317 33.5494L117.713 32.8372Z" fill="#FBF4F4"/>
<path d="M150.977 48.1871L147.784 46.7697L148.058 46.3064L151.251 47.7238L150.977 48.1871ZM144.59 45.3522L141.397 43.9347L141.671 43.4714L144.864 44.8889L144.59 45.3522ZM138.204 42.5172L135.01 41.0998L135.284 40.6365L138.478 42.0539L138.204 42.5172ZM131.817 39.6824L128.623 38.265L128.897 37.8016L132.091 39.219L131.817 39.6824ZM125.43 36.8475L122.237 35.4301L122.511 34.9668L125.704 36.3842L125.43 36.8475Z" fill="#FBF4F4"/>
<path d="M154.445 49.1412L154.171 49.6045L155.775 50.3167L156.049 49.8534L154.445 49.1412Z" fill="#FBF4F4"/>
<path d="M33.3044 67.6839C33.3044 67.8465 33.2983 68.0077 33.2862 68.1676C33.2179 69.0897 32.949 69.9922 32.4936 70.8277C32.49 70.8348 32.4859 70.8414 32.4824 70.8481C32.4612 70.8868 32.4394 70.9256 32.4171 70.9638C32.2816 71.2001 32.1313 71.4298 31.9669 71.6519C31.2159 72.6714 30.1866 73.515 28.9699 74.1081C27.7531 74.7012 26.3865 75.0255 24.9906 75.0525L25.0748 79.2442L26.1722 78.7437L26.3681 79.0663L25.083 79.6525L25.2401 87.4375L25.2419 87.5415L24.3934 87.7051L24.3952 87.6006L24.6623 75.053C23.5388 75.0391 22.4297 74.8319 21.3994 74.4436C20.3691 74.0553 19.4381 73.4936 18.6604 72.791C18.6069 72.7431 18.5539 72.6937 18.5022 72.6447L18.4963 72.6391C17.8484 72.0271 17.3244 71.3247 16.9464 70.5616C16.9546 70.5698 16.9635 70.5774 16.9717 70.5856C16.1174 68.8552 16.0595 66.9073 16.8098 65.1411C17.56 63.3749 19.0617 61.9241 21.007 61.086C21.0365 61.0732 21.0665 61.061 21.0959 61.0483C23.0202 60.2454 25.2225 60.0981 27.2663 60.6355C29.3101 61.1729 31.0462 62.3559 32.1305 63.9499C32.1823 64.0254 32.2323 64.1023 32.2806 64.1798C32.9541 65.2555 33.3061 66.4602 33.3044 67.6839Z" fill="#860A0A"/>
<path d="M32.159 70.8521C38.3185 70.8521 43.3118 66.5269 43.3118 61.1914C43.3118 55.856 38.3185 51.5308 32.159 51.5308C25.9995 51.5308 21.0062 55.856 21.0062 61.1914C21.0062 66.5269 25.9995 70.8521 32.159 70.8521Z" fill="#E592E2"/>
<path opacity="0.2" d="M23.9241 54.7389C22.8838 56.8468 22.7427 59.2064 23.5259 61.3961C24.3092 63.5858 25.9659 65.463 28.1998 66.692C30.4338 67.9211 33.0995 68.4221 35.7207 68.1054C38.3418 67.7888 40.7476 66.6751 42.508 64.9634C41.8725 66.2513 40.9214 67.404 39.7205 68.3418C38.5196 69.2796 37.0977 69.98 35.5533 70.3946C34.0089 70.8091 32.3789 70.9279 30.7762 70.7426C29.1736 70.5573 27.6366 70.0724 26.2718 69.3215C24.9069 68.5706 23.7469 67.5716 22.872 66.3938C21.9971 65.216 21.4283 63.8875 21.205 62.5004C20.9817 61.1133 21.1092 59.7007 21.5787 58.3605C22.0482 57.0203 22.8485 55.7846 23.9241 54.7389Z" fill="#7BE5E5"/>
<path d="M32.7623 88.1042L31.6233 87.8275L31.6257 87.7213L31.967 71.6519L31.9841 70.8507L31.9844 70.8273L32.0441 68.0197L32.1305 63.9504V63.9498L32.1892 61.1916H32.2206L32.2807 64.1798L32.3589 68.0693L32.4148 70.8291V70.8495L32.4172 70.9633V70.9639L32.5254 76.3435L32.5367 76.8781L32.7603 87.9972L32.7623 88.1042Z" fill="#7BE5E5"/>
<path d="M33.9634 75.6876L32.1198 76.5284L32.3768 76.9511L34.2204 76.1103L33.9634 75.6876Z" fill="#7BE5E5"/>
<path d="M176.733 29.9262C162.656 29.2053 148.537 29.3933 134.492 30.4886C127.723 31.0187 120.846 31.5911 114.202 32.8702C108.85 33.9004 102.639 35.6416 99.3045 39.6972C98.6062 40.5143 98.1356 41.4604 97.9295 42.4613C97.7234 43.4622 97.7874 44.4908 98.1166 45.4667C98.9117 47.7786 100.889 49.703 102.996 51.2103C107.844 54.6794 113.859 56.6981 119.232 59.4542C129.041 64.4863 138.02 71.2689 143.782 79.885C146.318 83.6764 148.73 88.7177 145.907 92.8954C143.14 96.9882 136.965 98.3982 131.929 99.0632C125.617 99.8966 119.115 99.6706 112.777 99.2039C105.828 98.6425 98.9173 97.7658 92.0743 96.5774C78.6684 94.3476 65.3846 91.5113 51.7925 90.2214C44.9773 89.5271 38.1046 89.3549 31.2545 89.707C25.068 90.0685 18.8286 90.9161 13.0168 92.8483C8.53842 94.3373 3.76464 96.59 1.34556 100.347C-0.986313 103.969 -0.0768077 108.145 2.46232 111.486C5.51741 115.507 10.2814 118.261 15.2344 120.275C20.8737 122.568 26.9056 124.054 32.9452 125.318C36.0083 125.959 39.0879 126.538 42.1679 127.115C42.8104 127.235 43.0849 126.38 42.4401 126.259C36.2291 125.097 30.0002 123.93 23.9434 122.248C18.3386 120.69 12.6027 118.695 8.01284 115.425C4.29961 112.78 0.76909 108.916 0.988261 104.522C1.2092 100.093 5.49912 97.0011 9.70383 95.0977C14.9585 92.719 20.9286 91.5603 26.7786 90.9548C33.4769 90.3082 40.2321 90.2286 46.9482 90.7171C60.5083 91.6109 73.7654 94.2865 87.0606 96.6203C99.9766 98.8875 113.296 100.987 126.532 100.405C131.779 100.175 137.4 99.5237 142.032 97.2299C144.153 96.1797 146.066 94.6986 147.144 92.7711C148.115 90.9373 148.422 88.8917 148.024 86.9037C147.273 82.5367 144.279 78.4874 141.291 75.009C138.016 71.2363 134.217 67.8274 129.979 64.8594C125.329 61.6175 120.315 58.7881 115.012 56.4136C112.2 55.1312 109.348 53.898 106.668 52.4127C104.099 50.9885 101.564 49.2748 99.9951 46.9628C98.638 44.9632 98.3891 42.6809 99.8026 40.6528C101.232 38.6015 103.696 37.1709 106.125 36.1254C111.977 33.6066 118.781 32.9323 125.184 32.2414C138.933 30.7631 152.789 30.1647 166.64 30.451C170.006 30.5196 173.371 30.6404 176.733 30.8132C177.391 30.8467 177.389 29.9596 176.733 29.9262V29.9262Z" fill="#7BE5E5"/>
<path d="M167.803 1.49374L169.929 0.0206306C168.277 -0.137231 167.598 0.643118 167.321 1.26077C166.03 0.796604 164.625 1.40491 164.625 1.40491L168.88 2.74276C168.665 2.24619 168.291 1.81292 167.803 1.49374Z" fill="#7BE5E5"/>
<path d="M157.483 6.15734L159.61 4.68423C157.958 4.52638 157.279 5.30672 157.001 5.92437C155.711 5.46021 154.306 6.06852 154.306 6.06852L158.56 7.40636C158.346 6.90979 157.972 6.47652 157.483 6.15734Z" fill="#7BE5E5"/>
<path d="M167.803 13.5414L169.929 12.0683C168.277 11.9104 167.598 12.6908 167.321 13.3084C166.03 12.8443 164.625 13.4526 164.625 13.4526L168.88 14.7904C168.665 14.2939 168.291 13.8606 167.803 13.5414Z" fill="#7BE5E5"/>
<path d="M135.926 15.7239C139.464 15.7239 142.332 13.2395 142.332 10.1747C142.332 7.11001 139.464 4.62555 135.926 4.62555C132.388 4.62555 129.519 7.11001 129.519 10.1747C129.519 13.2395 132.388 15.7239 135.926 15.7239Z" fill="#FF6583"/>
<path d="M156.015 27.2744H124.587C124.548 27.2748 124.508 27.2721 124.47 27.2663L139.334 4.96595C139.425 4.82704 139.556 4.71147 139.715 4.63106C139.874 4.55064 140.055 4.50827 140.24 4.50827C140.424 4.50827 140.605 4.55064 140.764 4.63106C140.923 4.71147 141.055 4.82704 141.145 4.96595L151.12 19.9307L151.598 20.6467L156.015 27.2744Z" fill="#E592E2"/>
<path d="M173.512 27.2746H146.331L151.598 20.6475L151.976 20.1699L158.84 11.5336C158.961 11.4014 159.114 11.2929 159.287 11.215C159.459 11.1372 159.649 11.0917 159.844 11.0817C160.039 11.0716 160.233 11.0971 160.416 11.1566C160.598 11.2161 160.764 11.3082 160.903 11.4268C160.938 11.4606 160.972 11.4962 161.002 11.5336L173.512 27.2746Z" fill="#E592E2"/>
<path d="M128.674 78.4208C131.653 79.7105 133.467 81.4139 133.467 83.2821C133.467 87.3067 125.059 90.5693 114.688 90.5693C110.179 90.5693 106.043 89.9521 102.806 88.9242C106.244 90.4128 111.235 91.3501 116.792 91.3501C127.163 91.3501 135.57 88.0875 135.57 84.0629C135.57 81.7881 132.883 79.7572 128.674 78.4208Z" fill="#F1F1F1"/>
<path d="M135.301 81.1853C138.662 82.6406 140.708 84.5626 140.708 86.6707C140.708 91.212 131.221 94.8934 119.519 94.8934C114.431 94.8934 109.763 94.197 106.111 93.0371C109.99 94.7168 115.622 95.7744 121.892 95.7744C133.595 95.7744 143.082 92.093 143.082 87.5517C143.082 84.9848 140.049 82.6932 135.301 81.1853Z" fill="#F1F1F1"/>
<path d="M126.139 79.6385C128.237 80.5471 129.515 81.7472 129.515 83.0634C129.515 85.8988 123.592 88.1974 116.285 88.1974C113.438 88.2293 110.607 87.8373 107.913 87.0384C110.336 88.0871 113.852 88.7475 117.767 88.7475C125.074 88.7475 130.997 86.4489 130.997 83.6135C130.997 82.0108 129.104 80.58 126.139 79.6385Z" fill="#F1F1F1"/>
<path d="M170.32 47.3517L170.316 47.3445L170.303 46.8905L173.127 43.3392L170.307 46.5507L170.297 46.6467L170.2 43.0168L172.639 39.3349L170.193 42.3791L170.219 34.8589L170.219 34.8339L170.218 34.8585L170.056 40.7854L167.833 38.3779L170.049 41.296L170 44.5429L167.955 41.3741L169.993 45.0202L169.965 46.8257L169.891 51.8275L169.885 52.2013C170.074 52.2025 170.26 52.1998 170.445 52.1931L170.317 47.3887L170.32 47.3517Z" fill="#FBF4F4"/>
<path d="M156.8 48.9132L156.795 48.906L156.783 48.4521L159.607 44.9007L156.786 48.1123L156.776 48.2082L156.68 44.5783L159.119 40.8964L156.673 43.9406L156.698 36.4204L156.698 36.3954L156.697 36.42L156.535 42.3469L154.312 39.9394L156.528 42.8576L156.48 46.1044L154.434 42.9356L156.472 46.5818L156.445 48.3872L156.37 53.389L156.365 53.7628C156.553 53.764 156.74 53.7613 156.924 53.7546L156.796 48.9503L156.8 48.9132Z" fill="#FBF4F4"/>
<path d="M163.41 43.9683L163.405 43.9611L163.393 43.5072L166.217 39.9558L163.396 43.1674L163.386 43.2633L163.29 39.6335L165.729 35.9515L163.283 38.9958L163.308 31.4756L163.308 31.4505L163.307 31.4752L163.145 37.4021L160.922 34.9946L163.138 37.9127L163.09 41.1595L161.044 37.9907L163.082 41.6369L163.055 43.4423L162.98 48.4442L162.975 48.8179C163.163 48.8192 163.35 48.8164 163.534 48.8098L163.406 44.0054L163.41 43.9683Z" fill="#FBF4F4"/>
<path d="M51.7429 130.389C53.7341 130.389 55.3483 128.99 55.3483 127.265C55.3483 125.541 53.7341 124.142 51.7429 124.142C49.7516 124.142 48.1374 125.541 48.1374 127.265C48.1374 128.99 49.7516 130.389 51.7429 130.389Z" fill="#6C63FF"/>
</svg>
